<svg class="sec-slider-svg" width="42" height="42" viewBox="0 0 42 42" fill="none" xmlns="http://www.w3.org/2000/svg">
<path d="M20.9999 42.0001C9.41943 42.0001 0 32.5787 0 21.0001C0 20.6183 0.309272 20.3071 0.692998 20.3071C1.07482 20.3071 1.386 20.6164 1.386 21.0001C1.386 31.817 10.185 40.616 20.9999 40.616C29.2777 40.616 36.706 35.3794 39.4837 27.5846C39.6116 27.2257 40.0068 27.0367 40.3695 27.1646C40.7284 27.2925 40.9174 27.6896 40.7895 28.0504C37.8133 36.3931 29.8619 42.0001 20.9999 42.0001Z" fill="currentColor" fill-opacity="0.4"/>
<path d="M41.3074 21.6912C40.9256 21.6912 40.6144 21.3819 40.6144 20.9982C40.6163 10.1851 31.8154 1.38421 21.0005 1.38421C13.0434 1.38421 5.87859 6.21801 2.86414 13.5107H25.7617C26.1435 13.5107 26.4547 13.82 26.4547 14.2037C26.4547 14.5855 26.1454 14.8967 25.7617 14.8967H1.90005C1.70151 14.9063 1.50869 14.8356 1.36742 14.6944C1.16887 14.4958 1.10969 14.198 1.2166 13.9403C4.19287 5.60138 12.1385 0.00012207 21.0005 0.00012207C32.5791 0.00012207 42.0004 9.41955 42.0004 21.0001C42.0004 21.3819 41.6911 21.6912 41.3074 21.6912Z" fill="currentColor" fill-opacity="0.4"/>
<path d="M40.0761 28.4876H16.1705C15.7887 28.4876 15.4775 28.1783 15.4775 27.7946C15.4775 27.4127 15.7868 27.1016 16.1705 27.1016H40.0761C40.4579 27.1016 40.7691 27.4108 40.7691 27.7946C40.7691 28.1783 40.4579 28.4876 40.0761 28.4876Z" fill="currentColor" fill-opacity="0.4"/>
<path d="M22.1247 18.5335C21.9471 18.5335 21.7696 18.4667 21.6359 18.3311C21.3648 18.06 21.3648 17.6229 21.6359 17.3518L24.784 14.2037L21.6359 11.0556C21.3648 10.7845 21.3648 10.3473 21.6359 10.0762C21.907 9.80515 22.3442 9.80515 22.6153 10.0762L26.2521 13.7131C26.3819 13.8429 26.4545 14.0185 26.4545 14.2018C26.4545 14.385 26.3819 14.5607 26.2521 14.6905L22.6153 18.3273C22.4778 18.4648 22.3003 18.5335 22.1247 18.5335Z" fill="currentColor" fill-opacity="0.4"/>
<path d="M19.8064 32.1262C19.6288 32.1262 19.4513 32.0594 19.3177 31.9238L15.6809 28.287C15.4098 28.0159 15.4098 27.5787 15.6809 27.3077L19.3177 23.6708C19.5888 23.3998 20.0259 23.3998 20.297 23.6708C20.5681 23.9419 20.5681 24.3791 20.297 24.6502L17.1489 27.7964L20.297 30.9445C20.5681 31.2156 20.5681 31.6527 20.297 31.9238C20.1615 32.0575 19.9839 32.1262 19.8064 32.1262Z" fill="currentColor" fill-opacity="0.4"/>
</svg>
