<svg width="28" height="27" viewBox="0 0 28 27" fill="none" xmlns="http://www.w3.org/2000/svg">
<path d="M10.8906 12.6562C15.5505 12.6562 19.3281 10.9563 19.3281 8.85937C19.3281 6.76242 15.5505 5.0625 10.8906 5.0625C6.23072 5.0625 2.45312 6.76242 2.45312 8.85937C2.45312 10.9563 6.23072 12.6562 10.8906 12.6562Z" stroke="white" stroke-linecap="round" stroke-linejoin="round"/>
<path d="M2.45312 8.85938V13.0781C2.45312 15.177 6.22891 16.875 10.8906 16.875C15.5523 16.875 19.3281 15.177 19.3281 13.0781V8.85938" stroke="white" stroke-linecap="round" stroke-linejoin="round"/>
<path d="M7.51465 12.3398V16.5586" stroke="white" stroke-linecap="round" stroke-linejoin="round"/>
<path d="M19.3291 10.1987C23.1787 10.5573 26.0791 12.0866 26.0791 13.9218C26.0791 16.0206 22.3033 17.7187 17.6416 17.7187C15.5744 17.7187 13.676 17.3812 12.21 16.8327" stroke="white" stroke-linecap="round" stroke-linejoin="round"/>
<path d="M9.20215 16.8012V18.1406C9.20215 20.2395 12.9779 21.9375 17.6396 21.9375C22.3014 21.9375 26.0771 20.2395 26.0771 18.1406V13.9219" stroke="white" stroke-linecap="round" stroke-linejoin="round"/>
<path d="M21.0156 17.4023V21.6211" stroke="white" stroke-linecap="round" stroke-linejoin="round"/>
<path d="M14.2666 12.3398V21.6211" stroke="white" stroke-linecap="round" stroke-linejoin="round"/>
</svg>
