<svg class="sec-slider-svg" width="75" height="42" viewBox="0 0 75 42" fill="none" xmlns="http://www.w3.org/2000/svg">
<path d="M41.7177 11.933H32.4081V10.855L27.2908 7.99927H5.72696C2.56902 7.99927 0 10.5732 0 13.7373V16.9807L2.06314 19.0479H10.3459L6.25738 35.0742H8.22802L6.46124 41.9999H11.3746L13.1414 35.0742H15.8162L18.8684 23.1083H20.3822C21.1467 23.1083 21.8244 22.5939 22.0377 21.8374L22.5228 19.8951C22.6021 19.6114 22.6077 19.3221 22.5454 19.0479H31.0698H32.4062H41.7158C42.5804 19.0479 43.2939 18.4048 43.4185 17.5727H48.4338V13.4063H43.4185C43.2958 12.5742 42.5841 11.933 41.7177 11.933ZM10.3346 40.6609H8.18083L9.60597 35.0761H11.7597L10.3346 40.6609ZM14.7761 33.7352H13.4812H8.56779H7.97697L11.7239 19.0479H18.523L18.0869 20.7556L14.7761 33.7352ZM21.175 19.1992C21.2166 19.2559 21.2826 19.3731 21.2317 19.5509L20.7466 21.4932C20.7013 21.6559 20.5502 21.7693 20.3822 21.7693H19.2101L19.9047 19.0479H20.873C21.0372 19.0479 21.1316 19.1424 21.175 19.1992ZM31.0698 17.7089H20.873H20.2463H18.8665H10.6876H2.61621L1.33642 16.4266V13.7373C1.33642 11.3127 3.30518 9.33826 5.72696 9.33826H26.9416L31.0698 11.6418V11.9311V17.7089ZM41.7177 17.7089H32.4081V13.272H41.7177C41.9348 13.272 42.1103 13.4479 42.1103 13.6654V17.3155C42.1103 17.533 41.9348 17.7089 41.7177 17.7089ZM47.0993 16.2337H43.4487V14.7472H47.0993V16.2337Z" fill="#62666C" fill-opacity="0.4"/>
<path d="M54.6987 16.0332C54.7176 15.9859 54.7289 15.9368 54.744 15.8876C54.7554 15.8479 54.7705 15.81 54.7799 15.7684C54.8158 15.585 54.8158 15.3959 54.7799 15.2124C54.7724 15.1708 54.7554 15.133 54.744 15.0933C54.7289 15.0441 54.7195 14.9949 54.6987 14.9476C54.6799 14.9004 54.6534 14.8588 54.6289 14.8153C54.6081 14.7774 54.593 14.7396 54.5685 14.7037C54.4647 14.5486 54.3307 14.4143 54.1759 14.3103C54.14 14.2857 54.1023 14.2706 54.0645 14.2498C54.0211 14.2252 53.9777 14.1987 53.9305 14.1798C53.8833 14.1609 53.8342 14.1495 53.787 14.1344C53.7474 14.1231 53.7078 14.106 53.6662 14.0985C53.4831 14.0625 53.2944 14.0625 53.1113 14.0985C53.0698 14.106 53.032 14.1231 52.9905 14.1344C52.9414 14.1495 52.8923 14.159 52.847 14.1798C52.7998 14.1987 52.7583 14.2252 52.713 14.2498C52.6752 14.2706 52.6375 14.2857 52.6016 14.3103C52.4469 14.4143 52.3128 14.5486 52.209 14.7037C52.1864 14.7396 52.1694 14.7774 52.1486 14.8134C52.1241 14.8569 52.0976 14.9004 52.0788 14.9476C52.0599 14.9949 52.0486 15.0422 52.0335 15.0914C52.0221 15.1311 52.0052 15.1708 51.9976 15.2124C51.9617 15.3959 51.9617 15.585 51.9976 15.7684C52.0052 15.81 52.0221 15.8498 52.0335 15.8895C52.0486 15.9387 52.058 15.9859 52.0788 16.0332C52.0976 16.0805 52.126 16.124 52.1486 16.1675C52.1694 16.2034 52.1845 16.2431 52.209 16.2772C52.3128 16.4323 52.4469 16.5665 52.6016 16.6706C52.6375 16.6951 52.6752 16.7103 52.7111 16.7311C52.7545 16.7557 52.7979 16.7821 52.8451 16.8011C52.8923 16.82 52.9395 16.8313 52.9886 16.8464C53.0282 16.8578 53.0679 16.8748 53.1094 16.8824C53.2925 16.9183 53.4812 16.9183 53.6643 16.8824C53.7059 16.8748 53.7455 16.8578 53.7852 16.8464C53.8323 16.8332 53.8814 16.8219 53.9286 16.8011C53.9758 16.7821 54.0173 16.7557 54.0626 16.7311C54.1004 16.7103 54.1381 16.6951 54.1721 16.6706C54.3269 16.5665 54.4609 16.4323 54.5647 16.2772C54.5893 16.2413 54.6044 16.2034 54.6251 16.1656C54.6534 16.1221 54.6799 16.0805 54.6987 16.0332Z" fill="#62666C" fill-opacity="0.4"/>
<path d="M61.966 15.4905C61.966 14.7056 61.3318 14.0702 60.5484 14.0702C59.7651 14.0702 59.1309 14.7056 59.1309 15.4905C59.1309 16.2754 59.7651 16.9108 60.5484 16.9108C61.3318 16.9108 61.966 16.2754 61.966 15.4905Z" fill="#62666C" fill-opacity="0.4"/>
<path d="M65.2129 15.4905C65.2129 16.2754 65.8471 16.9108 66.6305 16.9108C67.4138 16.9108 68.0481 16.2754 68.0481 15.4905C68.0481 14.7056 67.4138 14.0702 66.6305 14.0702C65.8471 14.0702 65.2129 14.7056 65.2129 15.4905Z" fill="#62666C" fill-opacity="0.4"/>
<path d="M64.691 18.7605C63.9077 18.7605 63.2734 19.396 63.2734 20.1808C63.2734 20.9657 63.9077 21.6011 64.691 21.6011C65.4744 21.6011 66.1086 20.9657 66.1086 20.1808C66.1086 19.396 65.4744 18.7605 64.691 18.7605Z" fill="#62666C" fill-opacity="0.4"/>
<path d="M70.2682 21.2947C69.4848 21.2947 68.8506 21.9301 68.8506 22.715C68.8506 23.4999 69.4848 24.1353 70.2682 24.1353C71.0515 24.1353 71.6858 23.4999 71.6858 22.715C71.6858 21.9301 71.0515 21.2947 70.2682 21.2947Z" fill="#62666C" fill-opacity="0.4"/>
<path d="M70.2682 6.8457C69.4848 6.8457 68.8506 7.48116 68.8506 8.26602C68.8506 9.05088 69.4848 9.68634 70.2682 9.68634C71.0515 9.68634 71.6858 9.05088 71.6858 8.26602C71.6858 7.48116 71.0515 6.8457 70.2682 6.8457Z" fill="#62666C" fill-opacity="0.4"/>
<path d="M63.2734 10.8002C63.2734 11.5851 63.9077 12.2205 64.691 12.2205C65.4744 12.2205 66.1086 11.5851 66.1086 10.8002C66.1086 10.0153 65.4744 9.37988 64.691 9.37988C63.9077 9.37988 63.2734 10.0153 63.2734 10.8002Z" fill="#62666C" fill-opacity="0.4"/>
<path d="M73.2496 14.0702C72.4663 14.0702 71.832 14.7056 71.832 15.4905C71.832 16.2754 72.4663 16.9108 73.2496 16.9108C74.033 16.9108 74.6672 16.2754 74.6672 15.4905C74.6672 14.7056 74.033 14.0702 73.2496 14.0702Z" fill="#62666C" fill-opacity="0.4"/>
<path d="M57.0691 19.1766C56.516 19.7307 56.516 20.6309 57.0691 21.1851C57.6222 21.7392 58.5207 21.7392 59.0737 21.1851C59.6268 20.6309 59.6268 19.7307 59.0737 19.1766C58.5188 18.6225 57.6222 18.6225 57.0691 19.1766Z" fill="#62666C" fill-opacity="0.4"/>
<path d="M62.7535 26.2913C63.5364 26.2913 64.1711 25.6554 64.1711 24.871C64.1711 24.0866 63.5364 23.4507 62.7535 23.4507C61.9706 23.4507 61.3359 24.0866 61.3359 24.871C61.3359 25.6554 61.9706 26.2913 62.7535 26.2913Z" fill="#62666C" fill-opacity="0.4"/>
<path d="M66.4324 28.5572C65.8793 29.1113 65.8793 30.0116 66.4324 30.5657C66.9854 31.1198 67.8839 31.1198 68.437 30.5657C68.9901 30.0116 68.9901 29.1113 68.437 28.5572C67.882 28.0031 66.9854 28.0031 66.4324 28.5572Z" fill="#62666C" fill-opacity="0.4"/>
<path d="M58.0719 12.2205C58.8548 12.2205 59.4895 11.5846 59.4895 10.8002C59.4895 10.0158 58.8548 9.37988 58.0719 9.37988C57.289 9.37988 56.6543 10.0158 56.6543 10.8002C56.6543 11.5846 57.289 12.2205 58.0719 12.2205Z" fill="#62666C" fill-opacity="0.4"/>
<path d="M63.7554 7.11427C64.3084 6.56014 64.3084 5.65992 63.7554 5.10578C63.2023 4.55165 62.3038 4.55165 61.7507 5.10578C61.1977 5.65992 61.1977 6.56014 61.7507 7.11427C62.3038 7.66841 63.2004 7.66841 63.7554 7.11427Z" fill="#62666C" fill-opacity="0.4"/>
<path d="M68.437 2.42397C68.9901 1.86984 68.9901 0.969608 68.437 0.415476C67.8839 -0.138655 66.9854 -0.138655 66.4324 0.415476C65.8793 0.969608 65.8793 1.86984 66.4324 2.42397C66.9854 2.9781 67.882 2.9781 68.437 2.42397Z" fill="#62666C" fill-opacity="0.4"/>
</svg>
