<svg width="87" height="51" viewBox="0 0 87 51" fill="none" xmlns="http://www.w3.org/2000/svg">
<g clip-path="url(#clip0_85_369)">
<path d="M31.9001 18.5002C30.3501 20.0202 27.8101 20.7302 25.7201 20.7302C20.1901 20.7302 17.8701 17.3502 17.8701 13.1102C17.8701 8.67021 20.8501 5.72021 25.5201 5.72021C30.2401 5.72021 33.2201 8.21021 32.3901 14.6202H21.9301C22.1301 16.0502 23.4201 17.1102 25.8001 17.1102C26.9501 17.1102 28.5801 16.6802 29.5501 15.8802L31.9001 18.5002ZM28.7201 11.6002C28.7801 9.85022 27.3201 9.14022 25.5401 9.14022C23.7901 9.14022 22.2501 9.94022 21.9001 11.6002H28.7201Z" fill="white"/>
<path d="M42.9802 16.92V20.33H34.8202V16.92H36.8202V9.68H34.2402V6.5H36.8202V5.73C36.8202 1.32 39.5702 0.03 42.4002 0C43.3702 0 44.2602 0.17 45.2602 0.69L44.3202 3.75C43.8002 3.52 43.2602 3.43 42.7702 3.43C41.5702 3.43 40.7402 4.17 40.7402 5.78V6.5H43.7502V9.68H40.7402V16.92H42.9802Z" fill="white"/>
<path d="M59.4402 18.5002C57.8902 20.0202 55.3502 20.7302 53.2602 20.7302C47.7302 20.7302 45.4102 17.3502 45.4102 13.1102C45.4102 8.67021 48.3902 5.72021 53.0602 5.72021C57.7802 5.72021 60.7602 8.21021 59.9302 14.6202H49.4702C49.6702 16.0502 50.9602 17.1102 53.3402 17.1102C54.4902 17.1102 56.1202 16.6802 57.0902 15.8802L59.4402 18.5002ZM56.2602 11.6002C56.3202 9.85022 54.8602 9.14022 53.0802 9.14022C51.3302 9.14022 49.7902 9.94022 49.4402 11.6002H56.2602Z" fill="white"/>
<path d="M70.7196 10.6801L70.5496 9.05006C70.1196 8.82006 69.1996 8.65006 68.3696 8.65006C67.1996 8.65006 66.0796 9.08006 66.0796 10.2201C66.0796 11.2501 67.4796 11.3401 68.3396 11.3901C71.8596 11.5901 74.7496 12.5401 74.7496 16.2001C74.6596 18.8901 72.3696 20.8401 68.4196 20.8401C66.1896 20.8401 64.0096 20.4101 62.0596 19.1801L62.1696 15.2301H65.5496L65.6896 16.8101C66.2296 17.1201 67.1496 17.3501 68.4996 17.3801C69.9596 17.4101 70.7896 16.9801 70.7896 16.0601C70.7896 15.3401 69.9296 14.7701 68.0696 14.6901C64.7196 14.2901 62.1096 13.6001 62.1096 10.2801C62.0496 6.87006 65.3996 5.56006 68.4996 5.56006C70.3596 5.56006 72.3896 5.96006 74.0296 6.76006L73.9996 10.6801H70.7196Z" fill="white"/>
<path d="M82.4 2.31982V6.23982H86.07V9.64982H82.35V15.1998C82.35 16.9498 83.9 17.3798 85.56 16.6598L86.53 19.9498C85.16 20.4698 84.38 20.5498 83.12 20.5498C79.86 20.5198 78.42 19.0298 78.42 15.1998V9.64982H75.96V6.23982H78.42V2.74982L82.4 2.31982Z" fill="white"/>
<path d="M13.54 47.7702C11.94 49.4602 9.93 50.0602 7.81 50.0602C3.44 50.0702 0 47.7202 0 42.6502C0 37.0402 4.18 35.1802 7.73 35.1802C9.65 35.1802 11.39 35.5202 12.88 36.3802L12.68 40.7902H9.25V38.9002C8.73 38.7602 8.02 38.7002 7.7 38.7002C4.95 38.7002 3.98 40.6802 3.98 42.6202C3.98 45.2502 5.5 46.3102 7.9 46.3102C8.93 46.3102 10.13 46.0502 11.16 45.0802L13.54 47.7702Z" fill="white"/>
<path d="M22.4199 35.1499C27.2599 35.1499 29.9799 38.2699 29.9799 42.6499C29.9799 46.6899 27.1699 50.0699 22.4499 50.0699C17.7299 50.0699 14.9199 46.9199 14.9199 42.6499C14.9199 38.2699 17.8099 35.1499 22.4199 35.1499ZM22.4999 38.7299C20.0999 38.7299 18.8899 40.3899 18.8899 42.6499C18.8899 44.6299 20.0399 46.3399 22.4399 46.3399C24.8499 46.3399 25.9899 44.6199 26.0499 42.6499C26.0599 40.3899 24.6799 38.7299 22.4999 38.7299Z" fill="white"/>
<path d="M31.87 29.6802H37.65V46.2302H39.37V49.7202H31.75V46.2302H33.7V33.1402H31.87V29.6802Z" fill="white"/>
<path d="M48.7598 35.1499C53.5998 35.1499 56.3198 38.2699 56.3198 42.6499C56.3198 46.6899 53.5098 50.0699 48.7898 50.0699C44.0698 50.0699 41.2598 46.9199 41.2598 42.6499C41.2598 38.2699 44.1498 35.1499 48.7598 35.1499ZM48.8498 38.7299C46.4398 38.7299 45.2398 40.3899 45.2398 42.6499C45.2398 44.6299 46.3898 46.3399 48.7898 46.3399C51.1998 46.3399 52.3398 44.6199 52.3998 42.6499C52.3998 40.3899 51.0198 38.7299 48.8498 38.7299Z" fill="white"/>
<path d="M60.3797 38.9599H58.5497V35.4999H63.7897L64.1597 36.8499C65.2497 35.6199 66.6197 35.1299 68.1397 35.1299C69.3997 35.1299 70.9197 35.5299 72.0097 36.4999L70.1497 39.9099C69.4297 39.3099 68.4297 39.0199 67.4897 39.0199C65.9197 39.0199 64.3697 39.9099 64.3697 42.3999V46.2899H66.3497V49.7299H58.2197V46.2899H60.3997V38.9599H60.3797Z" fill="white"/>
<path d="M15.83 12.9701C15.83 11.8001 15.56 10.4501 14.29 8.96007L11.25 11.0601C11.61 11.6301 11.8 12.3101 11.8 13.0601C11.8 15.3201 10.2 16.6701 7.91 16.6701C5.28 16.6701 4.07 14.9801 4.07 13.0601C4.07 11.2301 5.33 9.42007 7.94 9.42007C8.41 9.42007 8.84 9.48007 9.24 9.59007L10.56 6.14007C9.66 5.89007 8.54 5.79007 7.95 5.79007C4.09 5.78007 0 8.19007 0 13.0601C0 17.4701 2.78 20.1301 7.93 20.1301C10.56 20.1301 11.57 21.3601 11.57 22.7401C11.57 24.6601 9.62 25.1501 7.82 25.1701C5.84 25.1401 4.16 24.2801 4.01 22.0501H0.09C0.03 26.0301 2.61 28.8101 7.71 28.7801C11.78 28.7501 15.64 27.0901 15.64 22.6801C15.64 21.7601 15.55 19.7001 12.86 18.1601C14.86 17.0101 15.83 15.3801 15.83 12.9701Z" fill="white"/>
<path d="M7.75 13.4698L11.25 11.0598L14.29 8.95977L21.46 4.00977L11.35 4.01977L10.55 6.13977L9.23 9.58977L7.75 13.4698Z" fill="#BED730"/>
</g>
<defs>
<clipPath id="clip0_85_369">
<rect width="86.52" height="50.07" fill="white"/>
</clipPath>
</defs>
</svg>
