<svg width="76" height="44" viewBox="0 0 76 44" fill="none" xmlns="http://www.w3.org/2000/svg">
<g clip-path="url(#clip0_213_1175)">
<path d="M28.0214 16.2572C26.6598 17.593 24.4287 18.2169 22.5928 18.2169C17.7352 18.2169 15.6973 15.2466 15.6973 11.5207C15.6973 7.61892 18.3149 5.02655 22.4171 5.02655C26.5632 5.02655 29.1809 7.21469 28.4518 12.8476H19.2636C19.4393 14.1042 20.5724 15.0357 22.6631 15.0357C23.6732 15.0357 25.105 14.6579 25.9571 13.9549L28.0214 16.2572ZM25.228 10.1937C25.2807 8.65587 23.9982 8.03194 22.4347 8.03194C20.8975 8.03194 19.5447 8.73496 19.2373 10.1937H25.228Z" fill="black"/>
<path d="M37.7544 14.8688V17.8654H30.5866V14.8688H32.3434V8.50649H30.0771V5.712H32.3434V5.03535C32.3434 1.15998 34.7591 0.0263631 37.245 0C38.097 0 38.8788 0.149391 39.7572 0.606351L38.9315 3.29539C38.4747 3.09327 38.0004 3.01418 37.57 3.01418C36.5159 3.01418 35.7868 3.66447 35.7868 5.07929V5.712H38.4308V8.50649H35.7868V14.8688H37.7544Z" fill="black"/>
<path d="M52.2128 16.2572C50.8512 17.593 48.6201 18.2169 46.7842 18.2169C41.9266 18.2169 39.8887 15.2466 39.8887 11.5207C39.8887 7.61892 42.5063 5.02655 46.6085 5.02655C50.7546 5.02655 53.3723 7.21469 52.6432 12.8476H43.455C43.6307 14.1042 44.7638 15.0357 46.8545 15.0357C47.8646 15.0357 49.2964 14.6579 50.1485 13.9549L52.2128 16.2572ZM49.4194 10.1937C49.4721 8.65587 48.1896 8.03194 46.6261 8.03194C45.0889 8.03194 43.7361 8.73496 43.4287 10.1937H49.4194Z" fill="black"/>
<path d="M62.1207 9.38526L61.9714 7.95286C61.5937 7.75075 60.7855 7.60135 60.0564 7.60135C59.0287 7.60135 58.0449 7.97923 58.0449 8.98102C58.0449 9.88616 59.2746 9.96524 60.0301 10.0092C63.1221 10.1849 65.6607 11.0198 65.6607 14.2361C65.5816 16.6 63.5701 18.3136 60.1004 18.3136C58.1415 18.3136 56.2266 17.9357 54.5137 16.8548L54.6103 13.3837H57.5793L57.7023 14.7721C58.1766 15.0445 58.9848 15.2467 60.1706 15.273C61.4531 15.2994 62.1822 14.9215 62.1822 14.113C62.1822 13.4803 61.4268 12.9794 59.7929 12.9091C56.8502 12.5576 54.5576 11.9513 54.5576 9.03375C54.5049 6.03714 57.4476 4.88596 60.1706 4.88596C61.8045 4.88596 63.5876 5.23746 65.0282 5.94048L65.0019 9.38526H62.1207Z" fill="black"/>
<path d="M72.3806 2.03876V5.48353H75.6044V8.48014H72.3367V13.3573C72.3367 14.8952 73.6982 15.273 75.1564 14.6403L76.0084 17.5315C74.805 17.9884 74.1198 18.0587 73.013 18.0587C70.1494 18.0324 68.8845 16.723 68.8845 13.3573V8.48014H66.7236V5.48353H68.8845V2.41663L72.3806 2.03876Z" fill="black"/>
<path d="M11.8937 41.9788C10.4882 43.464 8.72261 43.9912 6.86038 43.9912C3.02173 44 0 41.9349 0 37.4795C0 32.5496 3.67175 30.9151 6.79011 30.9151C8.47665 30.9151 10.0051 31.2139 11.3139 31.9697L11.1382 35.845H8.12529V34.1842C7.66852 34.0611 7.04485 34.0084 6.76375 34.0084C4.34813 34.0084 3.49607 35.7484 3.49607 37.4532C3.49607 39.7643 4.83125 40.6958 6.93944 40.6958C7.8442 40.6958 8.89829 40.4674 9.80305 39.615L11.8937 41.9788Z" fill="black"/>
<path d="M19.6935 30.8888C23.945 30.8888 26.3343 33.6305 26.3343 37.4795C26.3343 41.0298 23.866 44 19.7199 44C15.5738 44 13.1055 41.2319 13.1055 37.4795C13.1055 33.6305 15.6441 30.8888 19.6935 30.8888ZM19.7638 34.0348C17.6556 34.0348 16.5928 35.4935 16.5928 37.4795C16.5928 39.2195 17.6029 40.7222 19.7111 40.7222C21.8281 40.7222 22.8295 39.2107 22.8822 37.4795C22.891 35.4935 21.6787 34.0348 19.7638 34.0348Z" fill="black"/>
<path d="M27.9951 26.0819H33.0723V40.6255H34.5831V43.6924H27.8896V40.6255H29.6025V29.1224H27.9951V26.0819Z" fill="black"/>
<path d="M42.8312 30.8888C47.0827 30.8888 49.472 33.6305 49.472 37.4795C49.472 41.0298 47.0037 44 42.8576 44C38.7115 44 36.2432 41.2319 36.2432 37.4795C36.2432 33.6305 38.7818 30.8888 42.8312 30.8888ZM42.9103 34.0348C40.7933 34.0348 39.7392 35.4935 39.7392 37.4795C39.7392 39.2195 40.7494 40.7222 42.8576 40.7222C44.9746 40.7222 45.9759 39.2107 46.0287 37.4795C46.0287 35.4935 44.8164 34.0348 42.9103 34.0348Z" fill="black"/>
<path d="M53.038 34.2369H51.4305V31.1963H56.0334L56.3584 32.3827C57.3158 31.3018 58.5193 30.8712 59.8544 30.8712C60.9612 30.8712 62.2964 31.2227 63.2539 32.0751L61.6201 35.0717C60.9876 34.5444 60.1092 34.2896 59.2835 34.2896C57.9044 34.2896 56.5428 35.0717 56.5428 37.2598V40.6783H58.2821V43.7012H51.1406V40.6783H53.0556V34.2369H53.038Z" fill="black"/>
<path d="M13.9052 11.3976C13.9052 10.3695 13.6681 9.18314 12.5525 7.87377L9.88211 9.71919C10.1983 10.2201 10.3652 10.8176 10.3652 11.4767C10.3652 13.4627 8.95978 14.6491 6.94822 14.6491C4.638 14.6491 3.57513 13.164 3.57513 11.4767C3.57513 9.86858 4.68192 8.278 6.97457 8.278C7.38743 8.278 7.76514 8.33073 8.11651 8.4274L9.27601 5.39564C8.48544 5.17595 7.50162 5.08807 6.98336 5.08807C3.5927 5.07928 0 7.19712 0 11.4767C0 15.3521 2.44198 17.6896 6.96579 17.6896C9.27601 17.6896 10.1632 18.7705 10.1632 19.9832C10.1632 21.6705 8.4503 22.1011 6.86916 22.1186C5.12991 22.0923 3.65418 21.3365 3.52242 19.3769H0.0790569C0.0263523 22.8744 2.29265 25.3174 6.77254 25.291C10.3477 25.2646 13.7383 23.8059 13.7383 19.9305C13.7383 19.122 13.6593 17.3118 11.2963 15.9585C13.0532 14.9479 13.9052 13.5155 13.9052 11.3976Z" fill="black"/>
<path d="M6.80762 11.837L9.88205 9.71919L12.5524 7.87378L18.8506 3.52386L9.96989 3.53265L9.26716 5.39564L8.10766 8.4274L6.80762 11.837Z" fill="#BED730"/>
</g>
<defs>
<clipPath id="clip0_213_1175">
<rect width="76" height="44" fill="white"/>
</clipPath>
</defs>
</svg>
