<svg width="28" height="28" viewBox="0 0 28 28" fill="none" xmlns="http://www.w3.org/2000/svg">
<path d="M21.5596 9.35988C21.5596 11.5106 20.6355 13.4487 19.1636 14.7898C18.031 15.8284 16.5712 16.5153 14.9602 16.683C14.7108 16.7075 14.4573 16.7198 14.1997 16.7198C13.9421 16.7198 13.6886 16.7075 13.4392 16.683C11.8282 16.5153 10.3685 15.8284 9.23589 14.7898C7.76392 13.4487 6.83984 11.5106 6.83984 9.35988C6.83984 5.29559 10.1354 2 14.1997 2C18.264 2 21.5596 5.29559 21.5596 9.35988Z" stroke="black" stroke-width="1.7" stroke-miterlimit="10" stroke-linecap="round" stroke-linejoin="round"/>
<path d="M13.3538 17.2952L9.80105 25.0001L8.49167 21.5927L5 22.8705L8.86702 15.3232C10.076 16.4051 11.6342 17.1206 13.3538 17.2952Z" stroke="black" stroke-width="1.7" stroke-miterlimit="10" stroke-linecap="round" stroke-linejoin="round"/>
<path d="M23.3314 22.8705L19.8397 21.5927L18.5303 25.0001L14.9775 17.2952C16.6972 17.1206 18.2553 16.4051 19.4643 15.3232L23.3314 22.8705Z" stroke="black" stroke-width="1.7" stroke-miterlimit="10" stroke-linecap="round" stroke-linejoin="round"/>
<path d="M11.4404 9.6496L13.7886 11.7792L17.5509 7.52002" stroke="black" stroke-width="1.7" stroke-miterlimit="10" stroke-linecap="round" stroke-linejoin="round"/>
</svg>
