<svg width="22" height="27" viewBox="0 0 22 27" fill="none" xmlns="http://www.w3.org/2000/svg">
<path d="M19 9C19 11.3378 17.9956 13.4444 16.3956 14.9022C15.1644 16.0311 13.5778 16.7778 11.8267 16.96C11.5556 16.9867 11.28 17 11 17C10.72 17 10.4444 16.9867 10.1733 16.96C8.42222 16.7778 6.83556 16.0311 5.60444 14.9022C4.00444 13.4444 3 11.3378 3 9C3 4.58222 6.58222 1 11 1C15.4178 1 19 4.58222 19 9Z" stroke="white" stroke-width="1.7" stroke-miterlimit="10" stroke-linecap="round" stroke-linejoin="round"/>
<path d="M10.0804 17.6254L6.21861 26.0004L4.79535 22.2967L1 23.6856L5.20335 15.4819C6.5175 16.6579 8.21117 17.4356 10.0804 17.6254Z" stroke="white" stroke-width="1.7" stroke-miterlimit="10" stroke-linecap="round" stroke-linejoin="round"/>
<path d="M20.9261 23.6856L17.1307 22.2967L15.7075 26.0004L11.8457 17.6254C13.7149 17.4356 15.4086 16.6579 16.7227 15.4819L20.9261 23.6856Z" stroke="white" stroke-width="1.7" stroke-miterlimit="10" stroke-linecap="round" stroke-linejoin="round"/>
<path d="M8 9.3148L10.5524 11.6296L14.6419 7" stroke="white" stroke-width="1.7" stroke-miterlimit="10" stroke-linecap="round" stroke-linejoin="round"/>
</svg>
