<svg width="28" height="28" viewBox="0 0 28 28" fill="none" xmlns="http://www.w3.org/2000/svg">
<g clip-path="url(#clip0_85_309)">
<path d="M16.333 3.5V8.16667C16.333 8.47609 16.4559 8.77283 16.6747 8.99162C16.8935 9.21042 17.1903 9.33333 17.4997 9.33333H22.1663" stroke="#333333" stroke-width="1.75" stroke-linecap="round" stroke-linejoin="round"/>
<path d="M5.83301 9.33333V5.83333C5.83301 5.21449 6.07884 4.621 6.51643 4.18342C6.95401 3.74583 7.5475 3.5 8.16634 3.5H16.333L22.1663 9.33333V22.1667C22.1663 22.7855 21.9205 23.379 21.4829 23.8166C21.0453 24.2542 20.4518 24.5 19.833 24.5H13.9997" stroke="#333333" stroke-width="1.75" stroke-linecap="round" stroke-linejoin="round"/>
<path d="M7 19.8335C8.933 19.8335 10.5 18.2665 10.5 16.3335C10.5 14.4005 8.933 12.8335 7 12.8335C5.067 12.8335 3.5 14.4005 3.5 16.3335C3.5 18.2665 5.067 19.8335 7 19.8335Z" stroke="#333333" stroke-width="1.75" stroke-linecap="round" stroke-linejoin="round"/>
<path d="M5.25 19.8335L3.5 25.6668L7 23.9168L10.5 25.6668L8.75 19.8335" stroke="#333333" stroke-width="1.75" stroke-linecap="round" stroke-linejoin="round"/>
</g>
<defs>
<clipPath id="clip0_85_309">
<rect width="28" height="28" fill="white"/>
</clipPath>
</defs>
</svg>
