<svg width="28" height="28" viewBox="0 0 28 28" fill="none" xmlns="http://www.w3.org/2000/svg">
<path d="M13.8523 22.3226H7.60002C7.11195 22.3226 6.64388 22.1287 6.29876 21.7836C5.95365 21.4385 5.75977 20.9704 5.75977 20.4823V9.44084C5.75977 8.95277 5.95365 8.4847 6.29876 8.13958C6.64388 7.79447 7.11195 7.60059 7.60002 7.60059H18.6415C19.1296 7.60059 19.5977 7.79447 19.9428 8.13958C20.2879 8.4847 20.4818 8.95277 20.4818 9.44084V13.1213" stroke="black" stroke-width="1.75" stroke-linecap="round" stroke-linejoin="round"/>
<path d="M19.5625 15.8818V19.5623H23.243" stroke="black" stroke-width="1.75" stroke-linecap="round" stroke-linejoin="round"/>
<path d="M19.5623 23.2428C21.595 23.2428 23.2428 21.595 23.2428 19.5623C23.2428 17.5297 21.595 15.8818 19.5623 15.8818C17.5297 15.8818 15.8818 17.5297 15.8818 19.5623C15.8818 21.595 17.5297 23.2428 19.5623 23.2428Z" stroke="black" stroke-width="1.75" stroke-linecap="round" stroke-linejoin="round"/>
<path d="M16.8018 5.76025V9.44076" stroke="black" stroke-width="1.75" stroke-linecap="round" stroke-linejoin="round"/>
<path d="M9.44141 5.76025V9.44076" stroke="black" stroke-width="1.75" stroke-linecap="round" stroke-linejoin="round"/>
<path d="M5.75977 13.1211H20.4818" stroke="black" stroke-width="1.75" stroke-linecap="round" stroke-linejoin="round"/>
</svg>
