<svg class="sec-slider-svg" width="34" height="42" viewBox="0 0 34 42" fill="none" xmlns="http://www.w3.org/2000/svg">
<path d="M0.638984 42C0.992281 42 1.27797 41.7147 1.27797 41.3641V28.3042L16.1489 34.2238C16.3022 34.2845 16.4631 34.3148 16.624 34.3148C16.785 34.3148 16.9459 34.2845 17.0992 34.2238L31.9701 28.3042V41.3641C31.9701 41.7157 32.2568 42 32.6091 42C32.9615 42 33.2481 41.7147 33.2481 41.3641V27.3641V1.27281C33.2481 0.570539 32.6748 0 31.9692 0H1.27892C0.573276 0 0 0.570539 0 1.27281V27.3641V41.3641C0 41.7157 0.286638 42 0.638984 42ZM31.9711 26.7272H1.27892V15.8888H31.9711V26.7272ZM16.625 33.042L3.9596 28H29.2904L16.625 33.042ZM31.9711 1.27281V14.616H1.27892V1.27281H31.9711Z" fill="#62666C" fill-opacity="0.4"/>
<path d="M4.47619 12.7168H28.7737C29.4794 12.7168 30.0527 12.1453 30.0527 11.444V4.44396C30.0527 3.74168 29.4794 3.17114 28.7737 3.17114H4.47619C3.77054 3.17114 3.19727 3.74168 3.19727 4.44396V11.444C3.19727 12.1462 3.77149 12.7168 4.47619 12.7168ZM4.47619 4.44396H28.7737V11.444H4.47619V4.44396Z" fill="#62666C" fill-opacity="0.4"/>
<path d="M10.87 24.1722C12.4565 24.1722 13.7478 22.888 13.7478 21.3082C13.7478 19.7292 12.4575 18.4441 10.87 18.4441C9.28349 18.4441 7.99219 19.7283 7.99219 21.3082C7.99219 22.8871 9.28349 24.1722 10.87 24.1722ZM10.87 19.7169C11.7518 19.7169 12.4689 20.4306 12.4689 21.3082C12.4689 22.1858 11.7518 22.8994 10.87 22.8994C9.98818 22.8994 9.27111 22.1858 9.27111 21.3082C9.27111 20.4315 9.98818 19.7169 10.87 19.7169Z" fill="#62666C" fill-opacity="0.4"/>
<path d="M22.3798 24.1722C23.9663 24.1722 25.2576 22.888 25.2576 21.3082C25.2576 19.7292 23.9672 18.4441 22.3798 18.4441C20.7923 18.4441 19.502 19.7283 19.502 21.3082C19.5029 22.8871 20.7933 24.1722 22.3798 24.1722ZM22.3798 19.7169C23.2616 19.7169 23.9786 20.4306 23.9786 21.3082C23.9786 22.1858 23.2616 22.8994 22.3798 22.8994C21.4979 22.8994 20.7809 22.1858 20.7809 21.3082C20.7809 20.4315 21.4989 19.7169 22.3798 19.7169Z" fill="#62666C" fill-opacity="0.4"/>
</svg>
